<svg width="44" height="31" viewBox="0 0 44 31" fill="none" xmlns="http://www.w3.org/2000/svg">
<path d="M8.67641 19.7328C7.74096 22.0856 6.26689 24.4102 4.2967 26.6497C3.67304 27.3584 3.588 28.3789 4.09825 29.1726C4.49516 29.7963 5.14711 30.1364 5.85581 30.1364C6.05426 30.1364 6.25272 30.1223 6.45117 30.0514C10.6182 28.8324 20.3558 24.5094 20.6251 10.6472C20.7243 5.30366 16.8123 0.711307 11.7238 0.186869C8.90324 -0.0966243 6.09682 0.824628 4.0132 2.69561C1.92967 4.58077 0.739014 7.27386 0.739014 10.0803C0.739014 14.7577 4.05577 18.854 8.67641 19.7328Z" fill="#578A85"/>
<path d="M34.3455 0.186869C31.539 -0.0966243 28.7326 0.824628 26.6491 2.69561C24.5655 4.58077 23.3748 7.27386 23.3748 10.0803C23.3748 14.7577 26.6916 18.854 31.3123 19.7328C30.3768 22.0856 28.9027 24.4102 26.9325 26.6497C26.3088 27.3584 26.2238 28.3788 26.7341 29.1726C27.131 29.7962 27.783 30.1364 28.4917 30.1364C28.6901 30.1364 28.8885 30.1223 29.087 30.0514C33.2541 28.8324 42.9916 24.5094 43.2609 10.6472V10.4488C43.2609 5.19024 39.3915 0.711307 34.3455 0.186869Z" fill="#578A85"/>
</svg>
